<mxfile host="Electron" agent="Mozilla/5.0 (Windows NT 10.0; Win64; x64) AppleWebKit/537.36 (KHTML, like Gecko) draw.io/28.0.6 Chrome/138.0.7204.100 Electron/37.2.3 Safari/537.36" version="28.0.6">
  <diagram name="Trang-1" id="SHJtGEAuvtpSZKglwcr4">
    <mxGraphModel dx="1042" dy="626" grid="1" gridSize="10" guides="1" tooltips="1" connect="1" arrows="1" fold="1" page="1" pageScale="1" pageWidth="827" pageHeight="1169" math="0" shadow="0">
      <root>
        <mxCell id="0" />
        <mxCell id="1" parent="0" />
        <mxCell id="TzApABW0QDAokbzZ4mYr-19" style="edgeStyle=orthogonalEdgeStyle;rounded=0;orthogonalLoop=1;jettySize=auto;html=1;entryX=0.5;entryY=0;entryDx=0;entryDy=0;" edge="1" parent="1" source="TzApABW0QDAokbzZ4mYr-20" target="TzApABW0QDAokbzZ4mYr-22">
          <mxGeometry relative="1" as="geometry">
            <mxPoint x="410" y="140" as="targetPoint" />
          </mxGeometry>
        </mxCell>
        <mxCell id="TzApABW0QDAokbzZ4mYr-20" value="Start" style="ellipse;html=1;fillColor=#60a917;fontColor=default;strokeColor=#2D7600;fontSize=23;convertToSvg=0;" vertex="1" parent="1">
          <mxGeometry x="350" y="20" width="120" height="80" as="geometry" />
        </mxCell>
        <mxCell id="TzApABW0QDAokbzZ4mYr-21" style="edgeStyle=orthogonalEdgeStyle;rounded=0;orthogonalLoop=1;jettySize=auto;html=1;entryX=0.5;entryY=0;entryDx=0;entryDy=0;" edge="1" parent="1" source="TzApABW0QDAokbzZ4mYr-22" target="TzApABW0QDAokbzZ4mYr-24">
          <mxGeometry relative="1" as="geometry" />
        </mxCell>
        <mxCell id="TzApABW0QDAokbzZ4mYr-22" value="Nhập vào 1 số nguyên N" style="shape=parallelogram;perimeter=parallelogramPerimeter;whiteSpace=wrap;html=1;fixedSize=1;" vertex="1" parent="1">
          <mxGeometry x="330" y="140" width="160" height="80" as="geometry" />
        </mxCell>
        <mxCell id="TzApABW0QDAokbzZ4mYr-23" style="edgeStyle=orthogonalEdgeStyle;rounded=0;orthogonalLoop=1;jettySize=auto;html=1;entryX=0.5;entryY=0;entryDx=0;entryDy=0;" edge="1" parent="1" source="TzApABW0QDAokbzZ4mYr-24" target="TzApABW0QDAokbzZ4mYr-27">
          <mxGeometry relative="1" as="geometry">
            <mxPoint x="410" y="390" as="targetPoint" />
          </mxGeometry>
        </mxCell>
        <mxCell id="TzApABW0QDAokbzZ4mYr-24" value="Tính N!" style="rounded=0;whiteSpace=wrap;html=1;" vertex="1" parent="1">
          <mxGeometry x="345" y="270" width="130" height="70" as="geometry" />
        </mxCell>
        <mxCell id="TzApABW0QDAokbzZ4mYr-25" style="edgeStyle=orthogonalEdgeStyle;rounded=0;orthogonalLoop=1;jettySize=auto;html=1;entryX=0.5;entryY=0;entryDx=0;entryDy=0;exitX=0.5;exitY=1;exitDx=0;exitDy=0;" edge="1" parent="1" source="TzApABW0QDAokbzZ4mYr-27" target="TzApABW0QDAokbzZ4mYr-26">
          <mxGeometry relative="1" as="geometry">
            <mxPoint x="410" y="450" as="sourcePoint" />
          </mxGeometry>
        </mxCell>
        <mxCell id="TzApABW0QDAokbzZ4mYr-26" value="&lt;font style=&quot;font-size: 19px;&quot;&gt;End&lt;/font&gt;" style="ellipse;whiteSpace=wrap;html=1;fillColor=#a20025;fontColor=#ffffff;strokeColor=#6F0000;" vertex="1" parent="1">
          <mxGeometry x="350" y="500" width="120" height="80" as="geometry" />
        </mxCell>
        <mxCell id="TzApABW0QDAokbzZ4mYr-27" value="In kết quả ra màn hình" style="shape=parallelogram;perimeter=parallelogramPerimeter;whiteSpace=wrap;html=1;fixedSize=1;" vertex="1" parent="1">
          <mxGeometry x="306.25" y="400" width="207.5" height="50" as="geometry" />
        </mxCell>
      </root>
    </mxGraphModel>
  </diagram>
</mxfile>
